<mxfile host="app.diagrams.net" modified="2024-05-14T16:44:41.356Z" agent="Mozilla/5.0 (Windows NT 10.0; Win64; x64) AppleWebKit/537.36 (KHTML, like Gecko) Chrome/124.0.0.0 Safari/537.36" etag="SgQ8C6U0-k2NxmUZnWdk" version="24.4.0" type="device">
  <diagram id="yPxyJZ8AM_hMuL3Unpa9" name="gitflow">
    <mxGraphModel dx="2034" dy="1774" grid="1" gridSize="10" guides="1" tooltips="1" connect="1" arrows="1" fold="1" page="1" pageScale="1" pageWidth="850" pageHeight="1100" math="0" shadow="0">
      <root>
        <mxCell id="0" />
        <mxCell id="1" parent="0" />
        <mxCell id="74" style="edgeStyle=orthogonalEdgeStyle;rounded=1;orthogonalLoop=1;jettySize=auto;html=1;dashed=1;endArrow=none;endFill=0;fontSize=10;fontColor=#FFB570;fillColor=#e1d5e7;strokeColor=#9673a6;entryX=1;entryY=0.5;entryDx=0;entryDy=0;exitX=0.5;exitY=1;exitDx=0;exitDy=0;startArrow=classic;startFill=1;" parent="1" source="51" target="52" edge="1">
          <mxGeometry relative="1" as="geometry">
            <mxPoint x="220" y="189.9999999999999" as="sourcePoint" />
            <mxPoint x="119.99999999999977" y="240" as="targetPoint" />
          </mxGeometry>
        </mxCell>
        <mxCell id="52" value="Z0" style="ellipse;whiteSpace=wrap;html=1;aspect=fixed;fontSize=10;fillColor=#e1d5e7;strokeColor=#9673a6;" parent="1" vertex="1">
          <mxGeometry x="-79" y="132" width="40" height="40" as="geometry" />
        </mxCell>
        <mxCell id="51" value="Z1" style="ellipse;whiteSpace=wrap;html=1;aspect=fixed;fontSize=10;fillColor=#e1d5e7;strokeColor=#9673a6;" parent="1" vertex="1">
          <mxGeometry x="160" y="140" width="40" height="40" as="geometry" />
        </mxCell>
        <mxCell id="X5qCzSRsX2g8T83lWoOT-180" value="Z2" style="ellipse;whiteSpace=wrap;html=1;aspect=fixed;fontSize=10;fillColor=#e1d5e7;strokeColor=#9673a6;" parent="1" vertex="1">
          <mxGeometry x="405" y="110" width="40" height="40" as="geometry" />
        </mxCell>
        <mxCell id="X5qCzSRsX2g8T83lWoOT-181" value="Z3" style="ellipse;whiteSpace=wrap;html=1;aspect=fixed;fontSize=10;fillColor=#e1d5e7;strokeColor=#9673a6;" parent="1" vertex="1">
          <mxGeometry x="590" y="80" width="40" height="40" as="geometry" />
        </mxCell>
        <mxCell id="X5qCzSRsX2g8T83lWoOT-183" value="Pattern = &quot;ANANAS&quot;" style="text;html=1;align=center;verticalAlign=middle;whiteSpace=wrap;rounded=0;" parent="1" vertex="1">
          <mxGeometry x="-115" y="-160" width="130" height="30" as="geometry" />
        </mxCell>
        <mxCell id="X5qCzSRsX2g8T83lWoOT-184" value="Alphabet A = &quot;A, N, S, ...&quot;" style="text;html=1;align=center;verticalAlign=middle;whiteSpace=wrap;rounded=0;" parent="1" vertex="1">
          <mxGeometry x="25" y="-160" width="150" height="30" as="geometry" />
        </mxCell>
        <mxCell id="X5qCzSRsX2g8T83lWoOT-185" value="Z4" style="ellipse;whiteSpace=wrap;html=1;aspect=fixed;fontSize=10;fillColor=#e1d5e7;strokeColor=#9673a6;" parent="1" vertex="1">
          <mxGeometry x="660" y="280" width="40" height="40" as="geometry" />
        </mxCell>
        <mxCell id="X5qCzSRsX2g8T83lWoOT-186" value="Z5" style="ellipse;whiteSpace=wrap;html=1;aspect=fixed;fontSize=10;fillColor=#e1d5e7;strokeColor=#9673a6;" parent="1" vertex="1">
          <mxGeometry x="430" y="400" width="40" height="40" as="geometry" />
        </mxCell>
        <mxCell id="X5qCzSRsX2g8T83lWoOT-187" value="Z6" style="ellipse;whiteSpace=wrap;html=1;aspect=fixed;fontSize=10;fillColor=#e1d5e7;strokeColor=#9673a6;" parent="1" vertex="1">
          <mxGeometry x="230" y="320" width="40" height="40" as="geometry" />
        </mxCell>
        <mxCell id="X5qCzSRsX2g8T83lWoOT-188" value="&quot;A&quot;" style="text;html=1;align=center;verticalAlign=middle;whiteSpace=wrap;rounded=0;" parent="1" vertex="1">
          <mxGeometry x="-30" y="130" width="60" height="30" as="geometry" />
        </mxCell>
        <mxCell id="X5qCzSRsX2g8T83lWoOT-191" value="!&quot;A&quot;" style="text;html=1;align=center;verticalAlign=middle;whiteSpace=wrap;rounded=0;" parent="1" vertex="1">
          <mxGeometry x="-90" y="88" width="60" height="30" as="geometry" />
        </mxCell>
        <mxCell id="X5qCzSRsX2g8T83lWoOT-192" style="edgeStyle=orthogonalEdgeStyle;rounded=1;orthogonalLoop=1;jettySize=auto;html=1;dashed=1;endArrow=none;endFill=0;fontSize=10;fontColor=#FFB570;fillColor=#e1d5e7;strokeColor=#9673a6;entryX=1;entryY=0.5;entryDx=0;entryDy=0;startArrow=classic;startFill=1;" parent="1" edge="1">
          <mxGeometry relative="1" as="geometry">
            <mxPoint x="190" y="140" as="sourcePoint" />
            <mxPoint x="170.00000000000705" y="140" as="targetPoint" />
            <Array as="points">
              <mxPoint x="190" y="140" />
              <mxPoint x="190" y="110" />
              <mxPoint x="170" y="110" />
            </Array>
          </mxGeometry>
        </mxCell>
        <mxCell id="X5qCzSRsX2g8T83lWoOT-193" value="&quot;A&quot;" style="text;html=1;align=center;verticalAlign=middle;whiteSpace=wrap;rounded=0;" parent="1" vertex="1">
          <mxGeometry x="150" y="80" width="60" height="30" as="geometry" />
        </mxCell>
        <mxCell id="X5qCzSRsX2g8T83lWoOT-196" value="&lt;div&gt;&lt;u&gt;Zustandslegende&lt;/u&gt;&lt;/div&gt;&lt;div&gt;&lt;ul&gt;&lt;li&gt;Z0 = nichts&lt;/li&gt;&lt;li&gt;Z1 = &quot;A&quot;&lt;/li&gt;&lt;li&gt;Z2 = &quot;AN&quot;&lt;/li&gt;&lt;li&gt;Z3 = &quot;ANA&quot;&lt;/li&gt;&lt;li&gt;Z4 = &quot;ANAN&quot;&lt;/li&gt;&lt;li&gt;Z5 = &quot;ANANA&quot;&lt;/li&gt;&lt;li&gt;Z6 = &quot;ANANAS&quot;&lt;/li&gt;&lt;/ul&gt;&lt;/div&gt;" style="text;html=1;align=left;verticalAlign=middle;whiteSpace=wrap;rounded=0;" parent="1" vertex="1">
          <mxGeometry x="-105" y="-130" width="155" height="160" as="geometry" />
        </mxCell>
        <mxCell id="X5qCzSRsX2g8T83lWoOT-197" style="edgeStyle=orthogonalEdgeStyle;rounded=1;orthogonalLoop=1;jettySize=auto;html=1;dashed=1;endArrow=none;endFill=0;fontSize=10;fontColor=#FFB570;fillColor=#e1d5e7;strokeColor=#9673a6;entryX=1;entryY=0.5;entryDx=0;entryDy=0;exitX=0;exitY=0.5;exitDx=0;exitDy=0;startArrow=classic;startFill=1;" parent="1" source="X5qCzSRsX2g8T83lWoOT-180" target="51" edge="1">
          <mxGeometry relative="1" as="geometry">
            <mxPoint x="370.00000000000705" y="130" as="sourcePoint" />
            <mxPoint x="240.00000000000705" y="150" as="targetPoint" />
          </mxGeometry>
        </mxCell>
        <mxCell id="X5qCzSRsX2g8T83lWoOT-198" value="&quot;N&quot;" style="text;html=1;align=center;verticalAlign=middle;whiteSpace=wrap;rounded=0;" parent="1" vertex="1">
          <mxGeometry x="290" y="100" width="60" height="30" as="geometry" />
        </mxCell>
        <mxCell id="X5qCzSRsX2g8T83lWoOT-199" style="edgeStyle=orthogonalEdgeStyle;rounded=1;orthogonalLoop=1;jettySize=auto;html=1;dashed=1;endArrow=none;endFill=0;fontSize=10;fontColor=#FFB570;fillColor=#e1d5e7;strokeColor=#9673a6;entryX=1;entryY=0.5;entryDx=0;entryDy=0;exitX=0;exitY=0.5;exitDx=0;exitDy=0;startArrow=classic;startFill=1;" parent="1" source="X5qCzSRsX2g8T83lWoOT-181" target="X5qCzSRsX2g8T83lWoOT-180" edge="1">
          <mxGeometry relative="1" as="geometry">
            <mxPoint x="655" y="140" as="sourcePoint" />
            <mxPoint x="440" y="170" as="targetPoint" />
          </mxGeometry>
        </mxCell>
        <mxCell id="X5qCzSRsX2g8T83lWoOT-200" value="&quot;A&quot;" style="text;html=1;align=center;verticalAlign=middle;whiteSpace=wrap;rounded=0;" parent="1" vertex="1">
          <mxGeometry x="520" y="70" width="60" height="30" as="geometry" />
        </mxCell>
        <mxCell id="X5qCzSRsX2g8T83lWoOT-201" style="edgeStyle=orthogonalEdgeStyle;rounded=1;orthogonalLoop=1;jettySize=auto;html=1;dashed=1;endArrow=none;endFill=0;fontSize=10;fontColor=#FFB570;fillColor=#e1d5e7;strokeColor=#9673a6;entryX=0.5;entryY=1;entryDx=0;entryDy=0;startArrow=classic;startFill=1;exitX=0.5;exitY=0;exitDx=0;exitDy=0;" parent="1" source="X5qCzSRsX2g8T83lWoOT-185" target="X5qCzSRsX2g8T83lWoOT-181" edge="1">
          <mxGeometry relative="1" as="geometry">
            <mxPoint x="680" y="250" as="sourcePoint" />
            <mxPoint x="610" y="220" as="targetPoint" />
            <Array as="points">
              <mxPoint x="670" y="190" />
              <mxPoint x="620" y="190" />
            </Array>
          </mxGeometry>
        </mxCell>
        <mxCell id="X5qCzSRsX2g8T83lWoOT-202" value="&quot;N&quot;" style="text;html=1;align=center;verticalAlign=middle;whiteSpace=wrap;rounded=0;" parent="1" vertex="1">
          <mxGeometry x="610" y="160" width="60" height="30" as="geometry" />
        </mxCell>
        <mxCell id="X5qCzSRsX2g8T83lWoOT-204" value="&quot;A&quot;" style="text;html=1;align=center;verticalAlign=middle;whiteSpace=wrap;rounded=0;" parent="1" vertex="1">
          <mxGeometry x="540" y="390" width="60" height="30" as="geometry" />
        </mxCell>
        <mxCell id="X5qCzSRsX2g8T83lWoOT-205" value="&quot;S&quot;" style="text;html=1;align=center;verticalAlign=middle;whiteSpace=wrap;rounded=0;" parent="1" vertex="1">
          <mxGeometry x="290" y="380" width="60" height="30" as="geometry" />
        </mxCell>
        <mxCell id="X5qCzSRsX2g8T83lWoOT-206" style="edgeStyle=orthogonalEdgeStyle;rounded=1;orthogonalLoop=1;jettySize=auto;html=1;dashed=1;endArrow=none;endFill=0;fontSize=10;fontColor=#FFB570;fillColor=#e1d5e7;strokeColor=#9673a6;entryX=0;entryY=0.5;entryDx=0;entryDy=0;startArrow=classic;startFill=1;exitX=0.5;exitY=1;exitDx=0;exitDy=0;" parent="1" source="X5qCzSRsX2g8T83lWoOT-187" target="X5qCzSRsX2g8T83lWoOT-186" edge="1">
          <mxGeometry relative="1" as="geometry">
            <mxPoint x="130" y="467" as="sourcePoint" />
            <mxPoint x="330" y="360" as="targetPoint" />
            <Array as="points">
              <mxPoint x="250" y="410" />
            </Array>
          </mxGeometry>
        </mxCell>
        <mxCell id="X5qCzSRsX2g8T83lWoOT-208" value="&lt;b&gt;bei != Alphabet immer zurück zu Z0&lt;/b&gt;" style="text;html=1;align=center;verticalAlign=middle;whiteSpace=wrap;rounded=0;" parent="1" vertex="1">
          <mxGeometry x="-115" y="30" width="215" height="30" as="geometry" />
        </mxCell>
        <mxCell id="X5qCzSRsX2g8T83lWoOT-209" style="edgeStyle=orthogonalEdgeStyle;rounded=1;orthogonalLoop=1;jettySize=auto;html=1;dashed=1;endArrow=none;endFill=0;fontSize=10;fontColor=#FFB570;fillColor=#e1d5e7;strokeColor=#9673a6;entryX=0;entryY=0.5;entryDx=0;entryDy=0;exitX=0.5;exitY=1;exitDx=0;exitDy=0;startArrow=classic;startFill=1;" parent="1" source="52" target="51" edge="1">
          <mxGeometry relative="1" as="geometry">
            <mxPoint x="140" y="90" as="sourcePoint" />
            <mxPoint x="10" y="110" as="targetPoint" />
            <Array as="points">
              <mxPoint x="-59" y="210" />
              <mxPoint x="90" y="210" />
              <mxPoint x="90" y="160" />
            </Array>
          </mxGeometry>
        </mxCell>
        <mxCell id="X5qCzSRsX2g8T83lWoOT-210" value="&quot;S&quot;" style="text;html=1;align=center;verticalAlign=middle;whiteSpace=wrap;rounded=0;" parent="1" vertex="1">
          <mxGeometry y="210" width="60" height="30" as="geometry" />
        </mxCell>
        <mxCell id="X5qCzSRsX2g8T83lWoOT-211" style="edgeStyle=orthogonalEdgeStyle;rounded=1;orthogonalLoop=1;jettySize=auto;html=1;dashed=1;endArrow=none;endFill=0;fontSize=10;fontColor=#FFB570;fillColor=#e1d5e7;strokeColor=#9673a6;entryX=1;entryY=0.5;entryDx=0;entryDy=0;startArrow=classic;startFill=1;exitX=0.75;exitY=0;exitDx=0;exitDy=0;exitPerimeter=0;" parent="1" source="52" edge="1">
          <mxGeometry relative="1" as="geometry">
            <mxPoint x="-29" y="112" as="sourcePoint" />
            <mxPoint x="-68.99999999999295" y="132" as="targetPoint" />
            <Array as="points">
              <mxPoint x="-49" y="113" />
              <mxPoint x="-68" y="113" />
              <mxPoint x="-68" y="132" />
            </Array>
          </mxGeometry>
        </mxCell>
        <mxCell id="X5qCzSRsX2g8T83lWoOT-212" style="edgeStyle=orthogonalEdgeStyle;rounded=1;orthogonalLoop=1;jettySize=auto;html=1;dashed=1;endArrow=none;endFill=0;fontSize=10;fontColor=#FFB570;fillColor=#e1d5e7;strokeColor=#9673a6;entryX=0.5;entryY=1;entryDx=0;entryDy=0;exitX=1.087;exitY=0.499;exitDx=0;exitDy=0;startArrow=classic;startFill=1;exitPerimeter=0;" parent="1" source="X5qCzSRsX2g8T83lWoOT-186" target="X5qCzSRsX2g8T83lWoOT-185" edge="1">
          <mxGeometry relative="1" as="geometry">
            <mxPoint x="750.000000000007" y="410" as="sourcePoint" />
            <mxPoint x="620.000000000007" y="430" as="targetPoint" />
          </mxGeometry>
        </mxCell>
        <mxCell id="X5qCzSRsX2g8T83lWoOT-215" style="edgeStyle=orthogonalEdgeStyle;rounded=1;orthogonalLoop=1;jettySize=auto;html=1;dashed=1;endArrow=none;endFill=0;fontSize=10;fontColor=#FFB570;fillColor=#e1d5e7;strokeColor=#9673a6;entryX=0.5;entryY=1;entryDx=0;entryDy=0;startArrow=classic;startFill=1;" parent="1" target="X5qCzSRsX2g8T83lWoOT-180" edge="1">
          <mxGeometry relative="1" as="geometry">
            <mxPoint x="70" y="210" as="sourcePoint" />
            <mxPoint x="390.00000000000705" y="240" as="targetPoint" />
          </mxGeometry>
        </mxCell>
        <mxCell id="X5qCzSRsX2g8T83lWoOT-216" style="edgeStyle=orthogonalEdgeStyle;rounded=1;orthogonalLoop=1;jettySize=auto;html=1;dashed=1;endArrow=none;endFill=0;fontSize=10;fontColor=#FFB570;fillColor=#e1d5e7;strokeColor=#9673a6;entryX=0;entryY=1;entryDx=0;entryDy=0;exitX=1.018;exitY=0.725;exitDx=0;exitDy=0;startArrow=classic;startFill=1;exitPerimeter=0;" parent="1" source="51" target="X5qCzSRsX2g8T83lWoOT-181" edge="1">
          <mxGeometry relative="1" as="geometry">
            <mxPoint x="640.000000000007" y="260" as="sourcePoint" />
            <mxPoint x="510.00000000000705" y="280" as="targetPoint" />
          </mxGeometry>
        </mxCell>
        <mxCell id="X5qCzSRsX2g8T83lWoOT-217" value="&quot;A&quot;" style="text;html=1;align=center;verticalAlign=middle;whiteSpace=wrap;rounded=0;" parent="1" vertex="1">
          <mxGeometry x="510" y="145" width="60" height="30" as="geometry" />
        </mxCell>
        <mxCell id="X5qCzSRsX2g8T83lWoOT-219" style="edgeStyle=orthogonalEdgeStyle;rounded=1;orthogonalLoop=1;jettySize=auto;html=1;dashed=1;endArrow=none;endFill=0;fontSize=10;fontColor=#FFB570;fillColor=#e1d5e7;strokeColor=#9673a6;startArrow=classic;startFill=1;" parent="1" edge="1">
          <mxGeometry relative="1" as="geometry">
            <mxPoint x="340" y="210" as="sourcePoint" />
            <mxPoint x="610" y="70" as="targetPoint" />
            <Array as="points">
              <mxPoint x="480" y="210" />
              <mxPoint x="480" y="51" />
              <mxPoint x="611" y="51" />
              <mxPoint x="611" y="80" />
              <mxPoint x="610" y="80" />
            </Array>
          </mxGeometry>
        </mxCell>
        <mxCell id="X5qCzSRsX2g8T83lWoOT-223" style="edgeStyle=orthogonalEdgeStyle;rounded=1;orthogonalLoop=1;jettySize=auto;html=1;dashed=1;endArrow=none;endFill=0;fontSize=10;fontColor=#FFB570;fillColor=#e1d5e7;strokeColor=#9673a6;entryX=0;entryY=0;entryDx=0;entryDy=0;startArrow=classic;startFill=1;" parent="1" target="X5qCzSRsX2g8T83lWoOT-185" edge="1">
          <mxGeometry relative="1" as="geometry">
            <mxPoint x="380" y="210" as="sourcePoint" />
            <mxPoint x="400.00000000000705" y="310" as="targetPoint" />
          </mxGeometry>
        </mxCell>
        <mxCell id="X5qCzSRsX2g8T83lWoOT-224" value="&quot;S&quot;, &quot;N&quot;" style="text;html=1;align=center;verticalAlign=middle;whiteSpace=wrap;rounded=0;" parent="1" vertex="1">
          <mxGeometry x="602" y="240" width="60" height="30" as="geometry" />
        </mxCell>
        <mxCell id="X5qCzSRsX2g8T83lWoOT-225" value="&quot;S&quot;" style="text;html=1;align=center;verticalAlign=middle;whiteSpace=wrap;rounded=0;" parent="1" vertex="1">
          <mxGeometry x="510" y="30" width="60" height="30" as="geometry" />
        </mxCell>
        <mxCell id="X5qCzSRsX2g8T83lWoOT-226" value="&quot;S&quot;, &quot;N&quot;" style="text;html=1;align=center;verticalAlign=middle;whiteSpace=wrap;rounded=0;" parent="1" vertex="1">
          <mxGeometry x="370" y="172" width="60" height="30" as="geometry" />
        </mxCell>
        <mxCell id="X5qCzSRsX2g8T83lWoOT-227" style="edgeStyle=orthogonalEdgeStyle;rounded=1;orthogonalLoop=1;jettySize=auto;html=1;dashed=1;endArrow=none;endFill=0;fontSize=10;fontColor=#FFB570;fillColor=#e1d5e7;strokeColor=#9673a6;entryX=1;entryY=0.5;entryDx=0;entryDy=0;exitX=0;exitY=1;exitDx=0;exitDy=0;startArrow=classic;startFill=1;" parent="1" source="X5qCzSRsX2g8T83lWoOT-185" edge="1">
          <mxGeometry relative="1" as="geometry">
            <mxPoint x="580.000000000007" y="380" as="sourcePoint" />
            <mxPoint x="450.00000000000705" y="400" as="targetPoint" />
            <Array as="points">
              <mxPoint x="660" y="314" />
              <mxPoint x="660" y="360" />
              <mxPoint x="451" y="360" />
              <mxPoint x="451" y="400" />
            </Array>
          </mxGeometry>
        </mxCell>
        <mxCell id="X5qCzSRsX2g8T83lWoOT-228" value="&quot;N&quot;" style="text;html=1;align=center;verticalAlign=middle;whiteSpace=wrap;rounded=0;" parent="1" vertex="1">
          <mxGeometry x="520" y="338" width="60" height="30" as="geometry" />
        </mxCell>
        <mxCell id="X5qCzSRsX2g8T83lWoOT-229" style="edgeStyle=orthogonalEdgeStyle;rounded=1;orthogonalLoop=1;jettySize=auto;html=1;dashed=1;endArrow=none;endFill=0;fontSize=10;fontColor=#FFB570;fillColor=#e1d5e7;strokeColor=#9673a6;entryX=0.125;entryY=0.046;entryDx=0;entryDy=0;exitX=1;exitY=1;exitDx=0;exitDy=0;startArrow=classic;startFill=1;entryPerimeter=0;" parent="1" source="51" target="X5qCzSRsX2g8T83lWoOT-186" edge="1">
          <mxGeometry relative="1" as="geometry">
            <mxPoint x="460.00000000000705" y="310" as="sourcePoint" />
            <mxPoint x="330.00000000000705" y="330" as="targetPoint" />
            <Array as="points">
              <mxPoint x="194" y="190" />
              <mxPoint x="280" y="190" />
              <mxPoint x="280" y="300" />
              <mxPoint x="435" y="300" />
            </Array>
          </mxGeometry>
        </mxCell>
        <mxCell id="X5qCzSRsX2g8T83lWoOT-230" value="&quot;A&quot;" style="text;html=1;align=center;verticalAlign=middle;whiteSpace=wrap;rounded=0;" parent="1" vertex="1">
          <mxGeometry x="340" y="278" width="60" height="30" as="geometry" />
        </mxCell>
      </root>
    </mxGraphModel>
  </diagram>
</mxfile>
